<?xml version="1.0"?>
<svg xmlns="http://www.w3.org/2000/svg" id="Layer_1" data-name="Layer 1" viewBox="0 0 64 64"><title>Icons8 RSL Colored Part 9</title><rect x="5" y="9" width="54" height="46" style="fill:#85cbf8;"/><path d="M56,14H8a3,3,0,0,1-3-3H5A2,2,0,0,1,7,9H57a2,2,0,0,1,2,2h0A3,3,0,0,1,56,14Z" style="fill:#ace3ff;"/><path d="M58,55H6a1,1,0,0,1-1-1H5a4,4,0,0,1,4-4H56a3,3,0,0,1,3,3v1A1,1,0,0,1,58,55Z" style="fill:#6fc6f0;"/><path d="M57,8H7a3,3,0,0,0-3,3V53a3,3,0,0,0,3,3H57a3,3,0,0,0,3-3V11A3,3,0,0,0,57,8Zm1,45a1,1,0,0,1-1,1H7a1,1,0,0,1-1-1V11a1,1,0,0,1,1-1H57a1,1,0,0,1,1,1Z" style="fill:#8d6c9f;"/><path d="M20,48a1,1,0,0,0-1,1v2a1,1,0,0,0,2,0V49A1,1,0,0,0,20,48Z" style="fill:#8d6c9f;"/><path d="M15,48a1,1,0,0,0-1,1v2a1,1,0,0,0,2,0V49A1,1,0,0,0,15,48Z" style="fill:#8d6c9f;"/><path d="M10,48a1,1,0,0,0-1,1v2a1,1,0,0,0,2,0V49A1,1,0,0,0,10,48Z" style="fill:#8d6c9f;"/><path d="M35,48a1,1,0,0,0-1,1v2a1,1,0,0,0,2,0V49A1,1,0,0,0,35,48Z" style="fill:#8d6c9f;"/><path d="M40,48a1,1,0,0,0-1,1v2a1,1,0,0,0,2,0V49A1,1,0,0,0,40,48Z" style="fill:#8d6c9f;"/><path d="M45,48a1,1,0,0,0-1,1v2a1,1,0,0,0,2,0V49A1,1,0,0,0,45,48Z" style="fill:#8d6c9f;"/><path d="M50,48a1,1,0,0,0-1,1v2a1,1,0,0,0,2,0V49A1,1,0,0,0,50,48Z" style="fill:#8d6c9f;"/><path d="M55,48a1,1,0,0,0-1,1v2a1,1,0,0,0,2,0V49A1,1,0,0,0,55,48Z" style="fill:#8d6c9f;"/><path d="M25,48a1,1,0,0,0-1,1v2a1,1,0,0,0,2,0V49A1,1,0,0,0,25,48Z" style="fill:#8d6c9f;"/><path d="M30,48a1,1,0,0,0-1,1v2a1,1,0,0,0,2,0V49A1,1,0,0,0,30,48Z" style="fill:#8d6c9f;"/><path d="M25,24h4a1,1,0,0,0,0-2H25a1,1,0,0,0,0,2Z" style="fill:#fff;"/><path d="M33,24H47a1,1,0,0,0,0-2H33a1,1,0,0,0,0,2Z" style="fill:#fff;"/><path d="M25,32H49a1,1,0,0,0,0-2H25a1,1,0,0,0,0,2Z" style="fill:#fff;"/><path d="M43,38H39a1,1,0,0,0,0,2h4a1,1,0,0,0,0-2Z" style="fill:#fff;"/><path d="M35,38H25a1,1,0,0,0,0,2H35a1,1,0,0,0,0-2Z" style="fill:#fff;"/><path d="M15,26a1,1,0,0,0,.71-.29l4-4a1,1,0,0,0-1.41-1.41L15,23.59l-1.29-1.29a1,1,0,0,0-1.41,1.41l2,2A1,1,0,0,0,15,26Z" style="fill:#fff;"/></svg>
